<?xml version="1.0" encoding="UTF-8" standalone="no"?>
<svg xmlns:dc="http://purl.org/dc/elements/1.1/" xmlns:cc="http://creativecommons.org/ns#" xmlns:rdf="http://www.w3.org/1999/02/22-rdf-syntax-ns#" xmlns:svg="http://www.w3.org/2000/svg" xmlns="http://www.w3.org/2000/svg" xmlns:sodipodi="http://sodipodi.sourceforge.net/DTD/sodipodi-0.dtd" xmlns:inkscape="http://www.inkscape.org/namespaces/inkscape" version="1.1" id="svg2" xml:space="preserve" width="96" height="138.50667" viewBox="0 0 96 138.50667" sodipodi:docname="NYU_Stacked_RGB_Color.eps"><metadata id="metadata8"><rdf:RDF><cc:Work rdf:about=""><dc:format>image/svg+xml</dc:format><dc:type rdf:resource="http://purl.org/dc/dcmitype/StillImage"/></cc:Work></rdf:RDF></metadata><defs id="defs6"/><sodipodi:namedview pagecolor="#ffffff" bordercolor="#666666" borderopacity="1" objecttolerance="10" gridtolerance="10" guidetolerance="10" inkscape:pageopacity="0" inkscape:pageshadow="2" inkscape:window-width="640" inkscape:window-height="480" id="namedview4"/><g id="g10" inkscape:groupmode="layer" inkscape:label="ink_ext_XXXXXX" transform="matrix(1.3333333,0,0,-1.3333333,0,138.50667)"><g id="g12" transform="scale(0.1)"><path d="M 555.781,353.828 H 161.563 V 989.66 H 555.781 V 353.828" style="fill:#ffffff;fill-opacity:1;fill-rule:nonzero;stroke:none" id="path14"/><path d="m 317.266,663.293 c -73.828,44.062 -66.43,106.918 -35.86,153.125 0.68,1.016 0.86,2.582 0.68,4.457 -1.25,11.012 -13.258,38.813 -18.258,46.324 -1.328,1.992 -2.422,1.84 -2.5,0.457 -0.39,-12.578 -14.765,-44.09 -36.64,-80.312 -23.282,-38.739 -23.36,-122.5 92.265,-125.77 1.07,-0.074 1.383,1.016 0.313,1.719 z m 19.742,3.27 c -44.145,94.23 44.086,155.089 58.519,168.292 2.024,1.864 1.477,3.594 1.504,5.692 0,29.621 -16.953,77.707 -22.5,84.543 -0.808,1.082 -1.484,0.613 -1.797,-0.426 -7.578,-29.34 -47.734,-72.867 -55.781,-82.465 -68.148,-80.937 -52.523,-130.246 18.57,-176.797 0.883,-0.547 2.032,0.067 1.485,1.161 z m 14.375,3.984 c 20.855,100 102.211,102.433 109.476,121.406 11.379,29.547 -9.406,82.047 -14.714,88.297 -0.52,0.625 -1.223,0.23 -1.485,-0.328 -11.144,-24.285 -28.984,-47.293 -42.082,-57.879 -18.387,-14.855 -89.062,-67.266 -52.914,-151.563 0.469,-1.015 1.43,-0.792 1.719,0.067 z m 14.476,-8.699 c 131.692,-4.739 141.067,115.316 141.614,160.261 0,2.59 -1.25,2.813 -1.946,1.016 -3.836,-9.375 -20.996,-42.875 -68.523,-63.191 -42.395,-18.243 -67.941,-59.543 -72.34,-96.653 -0.211,-0.926 0.547,-1.394 1.195,-1.433 z m 29.922,-44.961 v 30.238 H 291.875 V 616.887 H 395.781 Z M 335.055,402.969 c 0.859,-5 11.742,-7.5 14.242,0 l 25.156,199.504 H 313.258 L 335.055,402.969 Z M 719.949,318.855 H 0 v 719.985 h 719.949 v -719.985 0" style="fill:#4f2887;fill-opacity:1;fill-rule:nonzero;stroke:none" id="path16"/><path d="M 0,247.656 H 49.4531 L 163.727,97.5469 V 247.656 h 52.914 V 3.85938 H 171.016 L 52.9453,158.855 V 3.85938 H 0 V 247.656" style="fill:#4f2887;fill-opacity:1;fill-rule:nonzero;stroke:none" id="path18"/><path d="m 337.188,100 -93.672,147.656 h 62.656 l 58.203,-97.863 59.191,97.863 h 60.965 L 390.828,101.043 V 3.85938 h -53.64 V 100" style="fill:#4f2887;fill-opacity:1;fill-rule:nonzero;stroke:none" id="path20"/><path d="m 507.551,108.359 v 139.297 h 53.621 v -137.89 c 0,-39.766 19.844,-60.2855 52.629,-60.2855 32.715,0 52.558,19.875 52.558,58.5665 V 247.656 H 720 V 110.105 C 720,36.25 678.547,0 613.074,0 547.578,0 507.551,36.5586 507.551,108.359" style="fill:#4f2887;fill-opacity:1;fill-rule:nonzero;stroke:none" id="path22"/></g></g></svg>